<?xml version="1.0" standalone="no"?><!DOCTYPE svg PUBLIC "-//W3C//DTD SVG 1.1//EN" "http://www.w3.org/Graphics/SVG/1.1/DTD/svg11.dtd"><svg t="1704865265754" class="icon" viewBox="0 0 1024 1024" version="1.1" xmlns="http://www.w3.org/2000/svg" p-id="12835" xmlns:xlink="http://www.w3.org/1999/xlink" width="128" height="128"><path d="M840.876 869.111H183.041c-16.029 0-29.07-13.041-29.07-29.069V182.206c0-16.028 13.041-29.069 29.07-29.069h657.835c16.029 0 29.07 13.041 29.07 29.069v657.836c0.001 16.028-13.04 29.069-29.07 29.069zM183.041 180.68a1.53 1.53 0 0 0-1.528 1.526v657.836c0 0.842 0.686 1.526 1.528 1.526h657.835a1.53 1.53 0 0 0 1.528-1.526V182.206c0-0.842-0.686-1.526-1.528-1.526H183.041z" fill="#323333" p-id="12836"></path><path d="M750.849 739.396c0 5.863-4.754 10.616-10.618 10.616H283.687c-5.864 0-10.618-4.753-10.618-10.616V282.851c0-5.862 4.754-10.616 10.618-10.616h456.544c5.864 0 10.618 4.754 10.618 10.616v456.545zM687.977 1018.077c-8.284 0-15-6.716-15-15V866.756c0-8.284 6.716-15 15-15s15 6.716 15 15v136.321c0 8.284-6.716 15-15 15zM768.437 1018.077c-8.284 0-15-6.716-15-15V866.756c0-8.284 6.716-15 15-15s15 6.716 15 15v136.321c0 8.284-6.716 15-15 15zM527.059 1018.077c-8.284 0-15-6.716-15-15V866.756c0-8.284 6.716-15 15-15s15 6.716 15 15v136.321c0 8.284-6.716 15-15 15zM607.518 1018.077c-8.284 0-15-6.716-15-15V866.756c0-8.284 6.716-15 15-15s15 6.716 15 15v136.321c0 8.284-6.716 15-15 15zM1003.219 486.518H869.947c-8.284 0-15-6.716-15-15s6.716-15 15-15h133.272c8.284 0 15 6.716 15 15s-6.716 15-15 15zM1003.219 406.058H869.947c-8.284 0-15-6.716-15-15s6.716-15 15-15h133.272c8.284 0 15 6.716 15 15s-6.716 15-15 15zM1003.219 647.436H869.947c-8.284 0-15-6.716-15-15s6.716-15 15-15h133.272c8.284 0 15 6.716 15 15s-6.716 15-15 15zM1003.219 566.977H869.947c-8.284 0-15-6.716-15-15s6.716-15 15-15h133.272c8.284 0 15 6.716 15 15s-6.716 15-15 15zM157.726 486.518H21.497c-8.284 0-15-6.716-15-15s6.716-15 15-15h136.229c8.284 0 15 6.716 15 15s-6.716 15-15 15zM157.726 406.058H21.497c-8.284 0-15-6.716-15-15s6.716-15 15-15h136.229c8.284 0 15 6.716 15 15s-6.716 15-15 15zM157.726 647.436H21.497c-8.284 0-15-6.716-15-15s6.716-15 15-15h136.229c8.284 0 15 6.716 15 15s-6.716 15-15 15zM157.726 566.977H21.497c-8.284 0-15-6.716-15-15s6.716-15 15-15h136.229c8.284 0 15 6.716 15 15s-6.716 15-15 15zM409.612 168.137c-8.284 0-15-6.716-15-15V20.923c0-8.284 6.716-15 15-15s15 6.716 15 15v132.214c0 8.284-6.716 15-15 15zM490.072 168.137c-8.284 0-15-6.716-15-15V20.923c0-8.284 6.716-15 15-15s15 6.716 15 15v132.214c0 8.284-6.716 15-15 15zM248.694 168.137c-8.284 0-15-6.716-15-15V20.923c0-8.284 6.716-15 15-15s15 6.716 15 15v132.214c0 8.284-6.716 15-15 15zM329.153 168.137c-8.284 0-15-6.716-15-15V20.923c0-8.284 6.716-15 15-15s15 6.716 15 15v132.214c0 8.284-6.715 15-15 15z" fill="#323333" p-id="12837"></path><path d="M401.877 507.481c-6.169 0-11.17-5.002-11.17-11.171v-80.567c0-12.098 9.738-21.94 21.709-21.94h79.537c6.169 0 11.171 5.001 11.171 11.17 0 6.17-5.001 11.171-11.171 11.171h-78.905v80.167c0 6.168-5.001 11.17-11.171 11.17zM493.1 663.836h-80.684c-11.971 0-21.709-9.842-21.709-21.939v-80.429c0-6.169 5.001-11.171 11.17-11.171 6.17 0 11.171 5.002 11.171 11.171v80.027H493.1c6.169 0 11.171 5.001 11.171 11.171 0 6.169-5.001 11.17-11.171 11.17zM639.029 663.836h-80.536c-6.169 0-11.17-5.001-11.17-11.17 0-6.17 5.001-11.171 11.17-11.171h79.905v-80.027c0-6.169 5.001-11.171 11.17-11.171 6.17 0 11.171 5.002 11.171 11.171v80.429c0.001 12.097-9.739 21.939-21.71 21.939zM649.569 507.219c-6.169 0-11.17-5.002-11.17-11.171v-79.904H559.45c-6.17 0-11.171-5.001-11.171-11.171 0-6.169 5.001-11.17 11.171-11.17h79.58c11.971 0 21.71 9.843 21.71 21.94v80.305c0 6.169-5.001 11.171-11.171 11.171z" fill="#FFFFFF" p-id="12838"></path><path d="M567.23 413.976l-17.473-13.923c4.201-5.271 6.42-11.758 6.42-18.761 0-16.792-13.661-30.454-30.454-30.454-16.792 0-30.454 13.662-30.454 30.454 0 6.86 2.225 13.335 6.433 18.724l-17.607 13.752c-7.306-9.354-11.167-20.583-11.167-32.476 0-29.111 23.684-52.796 52.796-52.796s52.796 23.685 52.796 52.796c-0.001 12.113-3.905 23.415-11.29 32.684zM567.229 659.628l-17.472-13.925c4.2-5.27 6.42-11.756 6.42-18.759 0-16.792-13.661-30.454-30.454-30.454-16.792 0-30.454 13.662-30.454 30.454 0 6.858 2.225 13.333 6.433 18.722l-17.608 13.752c-7.306-9.355-11.167-20.584-11.167-32.474 0-29.111 23.684-52.796 52.796-52.796s52.796 23.685 52.796 52.796c0 12.114-3.904 23.415-11.29 32.684zM376.084 581.615c-29.112 0-52.796-23.684-52.796-52.795s23.684-52.796 52.796-52.796c12.115 0 23.417 3.903 32.685 11.286l-13.922 17.475c-5.27-4.199-11.758-6.419-18.762-6.419-16.792 0-30.455 13.662-30.455 30.454s13.662 30.453 30.455 30.453c6.861 0 13.336-2.224 18.725-6.434l13.753 17.607c-9.355 7.308-20.585 11.169-32.479 11.169zM623.847 581.615c-29.111 0-52.795-23.684-52.795-52.795s23.684-52.796 52.795-52.796c12.113 0 23.415 3.903 32.683 11.286l-13.922 17.475c-5.271-4.199-11.757-6.419-18.761-6.419-16.792 0-30.454 13.662-30.454 30.454s13.661 30.453 30.454 30.453c6.86 0 13.335-2.224 18.723-6.434l13.753 17.607c-9.354 7.308-20.584 11.169-32.476 11.169z" fill="#FFFFFF" p-id="12839"></path></svg>