<?xml version="1.0" standalone="no"?><!DOCTYPE svg PUBLIC "-//W3C//DTD SVG 1.1//EN" "http://www.w3.org/Graphics/SVG/1.1/DTD/svg11.dtd"><svg t="1704864294895" class="icon" viewBox="0 0 1024 1024" version="1.1" xmlns="http://www.w3.org/2000/svg" p-id="7865" xmlns:xlink="http://www.w3.org/1999/xlink" width="128" height="128"><path d="M1006.933333 1024h-546.133333c-10.24 0-17.066667-6.826667-17.066667-17.066667v-477.866666c0-3.413333 3.413333-10.24 3.413334-13.653334l273.066666-273.066666c3.413333 0 10.24-3.413333 13.653334-3.413334h273.066666c10.24 0 17.066667 6.826667 17.066667 17.066667v750.933333c0 10.24-6.826667 17.066667-17.066667 17.066667zM477.866667 989.866667h512V273.066667h-249.173334L477.866667 535.893333V989.866667z" fill="" p-id="7866"></path><path d="M733.866667 546.133333h-273.066667c-10.24 0-17.066667-6.826667-17.066667-17.066666s6.826667-17.066667 17.066667-17.066667H716.8V256c0-10.24 6.826667-17.066667 17.066667-17.066667s17.066667 6.826667 17.066666 17.066667v273.066667c0 10.24-6.826667 17.066667-17.066666 17.066666zM256 853.333333c-3.413333 0-10.24 0-13.653333-3.413333-6.826667-6.826667-6.826667-17.066667 0-23.893333L283.306667 785.066667H136.533333c-58.026667 0-102.4-44.373333-102.4-102.4v-153.6c0-10.24 6.826667-17.066667 17.066667-17.066667s17.066667 6.826667 17.066667 17.066667V682.666667c0 37.546667 30.72 68.266667 68.266666 68.266666h187.733334c6.826667 0 13.653333 3.413333 17.066666 10.24 3.413333 6.826667 0 13.653333-3.413333 17.066667l-68.266667 68.266667c-3.413333 6.826667-10.24 6.826667-13.653333 6.826666z" fill="" p-id="7867"></path><path d="M324.266667 785.066667c-3.413333 0-10.24 0-13.653334-3.413334l-68.266666-68.266666c-6.826667-6.826667-6.826667-17.066667 0-23.893334s17.066667-6.826667 23.893333 0l68.266667 68.266667c6.826667 6.826667 6.826667 17.066667 0 23.893333 0 3.413333-6.826667 3.413333-10.24 3.413334zM426.666667 443.733333c-10.24 0-17.066667-6.826667-17.066667-17.066666V17.066667c0-10.24 6.826667-17.066667 17.066667-17.066667s17.066667 6.826667 17.066666 17.066667v409.6c0 10.24-6.826667 17.066667-17.066666 17.066666zM358.4 375.466667c-10.24 0-17.066667-6.826667-17.066667-17.066667V17.066667c0-10.24 6.826667-17.066667 17.066667-17.066667s17.066667 6.826667 17.066667 17.066667v341.333333c0 10.24-6.826667 17.066667-17.066667 17.066667zM290.133333 375.466667c-10.24 0-17.066667-6.826667-17.066666-17.066667V17.066667c0-10.24 6.826667-17.066667 17.066666-17.066667s17.066667 6.826667 17.066667 17.066667v341.333333c0 10.24-6.826667 17.066667-17.066667 17.066667zM221.866667 443.733333c-10.24 0-17.066667-6.826667-17.066667-17.066666V17.066667c0-10.24 6.826667-17.066667 17.066667-17.066667s17.066667 6.826667 17.066666 17.066667v409.6c0 10.24-6.826667 17.066667-17.066666 17.066666zM17.066667 443.733333c-10.24 0-17.066667-6.826667-17.066667-17.066666V17.066667C0 6.826667 6.826667 0 17.066667 0s17.066667 6.826667 17.066666 17.066667v409.6c0 10.24-6.826667 17.066667-17.066666 17.066666zM153.6 375.466667c-10.24 0-17.066667-6.826667-17.066667-17.066667V17.066667c0-10.24 6.826667-17.066667 17.066667-17.066667s17.066667 6.826667 17.066667 17.066667v341.333333c0 10.24-6.826667 17.066667-17.066667 17.066667zM85.333333 375.466667c-10.24 0-17.066667-6.826667-17.066666-17.066667V17.066667c0-10.24 6.826667-17.066667 17.066666-17.066667s17.066667 6.826667 17.066667 17.066667v341.333333c0 10.24-6.826667 17.066667-17.066667 17.066667z" fill="" p-id="7868"></path><path d="M290.133333 426.666667m-17.066666 0a17.066667 17.066667 0 1 0 34.133333 0 17.066667 17.066667 0 1 0-34.133333 0Z" fill="" p-id="7869"></path><path d="M358.4 426.666667m-17.066667 0a17.066667 17.066667 0 1 0 34.133334 0 17.066667 17.066667 0 1 0-34.133334 0Z" fill="" p-id="7870"></path><path d="M85.333333 426.666667m-17.066666 0a17.066667 17.066667 0 1 0 34.133333 0 17.066667 17.066667 0 1 0-34.133333 0Z" fill="" p-id="7871"></path><path d="M153.6 426.666667m-17.066667 0a17.066667 17.066667 0 1 0 34.133334 0 17.066667 17.066667 0 1 0-34.133334 0Z" fill="" p-id="7872"></path></svg>